<mxfile host="app.diagrams.net" modified="2023-06-05T01:47:41.895Z" agent="Mozilla/5.0 (Windows NT 10.0; Win64; x64) AppleWebKit/537.36 (KHTML, like Gecko) Chrome/114.0.0.0 Safari/537.36" version="21.3.7" etag="RCWhHkZIO_Uk_BX41pqz" type="github">
  <diagram name="Page-1" id="zakux_U3WlKW_Fs_c9ud">
    <mxGraphModel>
      <root>
        <mxCell id="0" />
        <mxCell id="1" parent="0" />
      </root>
    </mxGraphModel>
  </diagram>
</mxfile>
